# Blender v2.79 (sub 0) OBJ File: 'ak-74.blend'
# www.blender.org
mtllib ak-74.mtl
o Cube.001
v 0.093025 -0.228241 0.230286
v 0.093025 -0.296026 0.958379
v -0.093025 -0.296026 0.958379
v -0.093025 -0.228241 0.230285
v 0.093025 -0.986029 0.079139
v 0.093025 -1.271534 0.752341
v -0.093025 -0.986029 0.079139
v -0.093025 -1.271534 0.752341
v 0.093025 -1.834177 -0.287867
v 0.093025 -2.229728 0.327156
v -0.093025 -1.834177 -0.287867
v -0.093025 -2.229728 0.327156
vn 0.5830 0.6514 -0.4855
vn -0.5830 0.6514 -0.4855
vn -0.5715 0.4867 0.6607
vn 0.5715 0.4867 0.6607
vn -0.6843 -0.2244 0.6938
vn -0.7317 0.2031 -0.6507
vn -0.5864 -0.2358 -0.7749
vn -0.5697 -0.7873 0.2356
vn 0.7317 0.2031 -0.6507
vn 0.6843 -0.2244 0.6938
vn 0.5864 -0.2358 -0.7749
vn 0.5697 -0.7873 0.2356
usemtl Material
s 1
f 1//1 4//2 3//3 2//4
f 8//5 7//6 11//7 12//8
f 3//3 4//2 7//6 8//5
f 4//2 1//1 5//9 7//6
f 2//4 3//3 8//5 6//10
f 1//1 2//4 6//10 5//9
f 9//11 10//12 12//8 11//7
f 7//6 5//9 9//11 11//7
f 6//10 8//5 12//8 10//12
f 5//9 6//10 10//12 9//11
o Cube
v 0.177382 -0.312790 -0.034180
v 0.177382 -0.312790 2.522668
v -0.177382 -0.312790 2.522668
v -0.177382 -0.312790 -0.034181
v 0.177382 0.122829 -0.034180
v 0.177382 0.122829 2.522668
v -0.177382 0.122829 2.522668
v -0.177382 0.122829 -0.034180
v 0.106429 0.395106 -0.034181
v 0.106429 0.395106 2.225063
v -0.106429 0.395106 -0.034181
v -0.106429 0.395106 2.225063
v 0.177382 -0.312790 -1.918816
v -0.177382 -0.312790 -1.918816
v 0.177382 0.122829 -1.918816
v -0.177382 0.122829 -1.918816
v 0.177382 0.407770 -0.034180
v -0.177382 0.407770 -0.034180
v 0.177382 0.407771 -1.918816
v -0.177382 0.407771 -1.918816
v 0.207589 0.122829 -0.246304
v -0.207589 0.122829 -0.246304
v 0.207590 0.122830 -1.934845
v -0.207589 0.122830 -1.934845
v 0.118638 -0.407677 -0.246304
v 0.207589 -0.290037 -0.246304
v -0.207589 -0.290037 -0.246304
v -0.118638 -0.407677 -0.246304
v 0.207590 -0.290037 -1.934845
v 0.118639 -0.407677 -1.934845
v -0.118638 -0.407677 -1.934845
v -0.207589 -0.290037 -1.934845
v 0.177382 -0.486034 3.224764
v -0.177382 -0.486034 3.224764
v 0.177382 0.150183 3.224764
v -0.177382 0.150183 3.224763
v 0.177381 -0.868995 4.920735
v -0.177383 -0.868995 4.920735
v 0.177381 0.250483 4.765727
v -0.177383 0.250483 4.765727
v 0.207589 0.162383 -0.700685
v -0.207589 0.162383 -0.700685
v 0.207590 0.162383 -1.934845
v -0.207589 0.162383 -1.934845
v 0.118638 0.530918 -0.700685
v 0.207589 0.389840 -0.700685
v -0.207589 0.389840 -0.700686
v -0.118638 0.530918 -0.700686
v 0.207590 0.389839 -1.934845
v 0.118639 0.530918 -1.934845
v -0.118638 0.530918 -1.934845
v -0.207589 0.389839 -1.934845
v 0.144400 -0.272244 1.789759
v 0.144400 -0.272244 2.353802
v -0.144400 -0.272244 2.353802
v -0.144400 -0.272244 1.789759
v 0.144400 -0.526714 1.789759
v 0.144400 -0.526714 2.353802
v -0.144400 -0.526714 2.353802
v -0.144400 -0.526714 1.789759
v 0.144400 -1.414344 2.188877
v 0.144400 -1.272274 2.601887
v -0.144400 -1.272274 2.601887
v -0.144400 -1.414344 2.188877
v -0.000000 0.042460 -1.239249
v -0.000000 0.042461 -4.082140
v -0.000000 0.407784 -2.930938
v -0.000000 0.407784 -1.778289
v 0.079364 0.374910 -2.930938
v 0.079364 0.374910 -1.778289
v 0.112238 0.295546 -2.930938
v 0.112238 0.295546 -1.778289
v 0.079364 0.216182 -2.930938
v 0.079364 0.216182 -1.778290
v -0.000000 0.183308 -2.930938
v -0.000000 0.183308 -1.778290
v -0.079364 0.216182 -2.930938
v -0.079364 0.216182 -1.778290
v -0.112238 0.295546 -2.930938
v -0.112238 0.295546 -1.778289
v -0.079364 0.374910 -2.930938
v -0.079364 0.374910 -1.778289
v 0.080965 0.008924 -4.082140
v 0.080965 0.008924 -1.239249
v 0.114502 -0.072041 -4.082140
v 0.114502 -0.072042 -1.239249
v 0.080965 -0.153007 -4.082140
v 0.080965 -0.153007 -1.239250
v -0.000000 -0.186543 -4.082140
v -0.000000 -0.186544 -1.239250
v -0.080965 -0.153007 -4.082140
v -0.080965 -0.153007 -1.239250
v -0.114502 -0.072041 -4.082140
v -0.114502 -0.072042 -1.239249
v -0.080965 0.008924 -4.082140
v -0.080965 0.008924 -1.239249
v 0.149328 -0.072042 -4.082140
v 0.105591 -0.177632 -4.082140
v 0.000000 -0.221369 -4.082140
v -0.105591 -0.177632 -4.082140
v 0.105591 0.033549 -4.082140
v 0.000000 0.077286 -4.082140
v -0.149328 -0.072042 -4.082140
v -0.105591 0.033549 -4.082140
v 0.149328 -0.072042 -5.061805
v 0.105591 -0.177632 -5.061805
v 0.000000 -0.221369 -5.061805
v -0.105591 -0.177632 -5.061805
v 0.105591 0.033549 -5.061805
v 0.000000 0.077286 -5.061805
v -0.149328 -0.072042 -5.061805
v -0.105591 0.033549 -5.061805
v 0.101819 -0.072042 -5.202870
v 0.071997 -0.144039 -5.202870
v 0.000000 -0.173861 -5.202870
v -0.071997 -0.144039 -5.202870
v 0.071997 -0.000045 -5.202870
v 0.000000 0.029777 -5.202870
v -0.101819 -0.072042 -5.202870
v -0.071997 -0.000045 -5.202870
v 0.039682 0.218877 -2.844161
v 0.039682 0.218877 -2.717674
v -0.039682 0.218877 -2.844161
v -0.039682 0.218877 -2.717674
v 0.039682 0.002046 -2.717674
v 0.039682 0.002046 -2.914140
v -0.039682 0.002046 -2.914140
v -0.039682 0.002046 -2.717674
v 0.050838 -0.707161 1.707586
v -0.050838 -0.518890 1.846633
v 0.050838 -0.683884 1.689617
v -0.050838 -0.504231 1.821141
v -0.050838 -0.683884 1.689617
v 0.050838 -0.518890 1.846633
v -0.050838 -0.707161 1.707586
v 0.050838 -0.504231 1.821141
v 0.050838 -0.707161 1.267259
v -0.050838 -0.707161 1.267259
v -0.050838 -0.683884 1.285228
v 0.050838 -0.683884 1.285228
v 0.050838 -0.600474 1.170426
v -0.050838 -0.600474 1.170426
v -0.050838 -0.582346 1.193580
v 0.050838 -0.582346 1.193580
v 0.073793 -0.286811 1.017462
v -0.073793 -0.286811 1.017462
v -0.073793 -0.286811 1.204190
v 0.073793 -0.286811 1.204190
v 0.073793 -0.634587 1.017462
v -0.073793 -0.634587 1.017462
v -0.073793 -0.634587 1.204190
v 0.073793 -0.634587 1.204190
vn 0.7071 -0.7071 0.0000
vn 0.7353 -0.6728 -0.0818
vn -0.7353 -0.6728 -0.0818
vn -0.7071 -0.7071 0.0000
vn 0.9971 0.0634 0.0408
vn -0.9971 0.0634 0.0408
vn -0.4928 0.6377 -0.5919
vn 0.4928 0.6377 -0.5919
vn 0.8008 0.5711 0.1804
vn 0.7049 -0.6903 -0.1631
vn -0.7049 -0.6903 -0.1631
vn -0.8008 0.5711 0.1804
vn 0.5773 0.5773 0.5773
vn -0.5773 0.5773 0.5773
vn -0.5338 0.8004 0.2725
vn 0.5338 0.8004 0.2725
vn 0.7071 0.0000 -0.7071
vn 0.5773 -0.5773 -0.5773
vn -0.5773 -0.5773 -0.5773
vn -0.7071 0.0000 -0.7071
vn 0.5773 0.5773 -0.5773
vn -0.5773 0.5773 -0.5773
vn 0.7269 -0.2438 0.6420
vn 0.7269 -0.2438 -0.6420
vn 0.3498 -0.7030 -0.6192
vn -0.3498 -0.7030 -0.6192
vn -0.7269 -0.2438 -0.6420
vn -0.7269 -0.2438 0.6420
vn -0.3498 -0.7030 0.6192
vn 0.3498 -0.7030 0.6192
vn -0.7100 0.7032 -0.0366
vn -0.5607 -0.6097 0.5602
vn -0.5813 0.6306 0.5142
vn 0.7100 0.7032 -0.0366
vn 0.5607 -0.6097 0.5602
vn 0.5813 0.6306 0.5142
vn 0.5773 -0.5773 0.5773
vn 0.7303 0.2110 -0.6496
vn 0.7303 0.2110 0.6496
vn -0.7303 0.2110 -0.6496
vn -0.3817 0.6919 -0.6128
vn 0.3817 0.6919 -0.6128
vn 0.3817 0.6919 0.6128
vn -0.3817 0.6919 0.6128
vn -0.7303 0.2110 0.6496
vn -0.5773 -0.5773 0.5773
vn -0.7449 0.1067 0.6585
vn -0.6628 -0.1570 -0.7321
vn -0.5823 -0.7461 -0.3229
vn -0.5779 -0.3617 0.7316
vn 0.6628 -0.1570 -0.7321
vn 0.7449 0.1067 0.6585
vn 0.5823 -0.7461 -0.3229
vn 0.5779 -0.3617 0.7316
vn -0.5944 0.0000 0.8042
vn -0.4203 0.4203 0.8042
vn -0.5490 0.5490 0.6302
vn -0.7764 0.0000 0.6302
vn 0.0000 0.7764 -0.6302
vn 0.0000 0.7764 0.6302
vn 0.5490 0.5490 0.6302
vn 0.5490 0.5490 -0.6302
vn 0.0000 -0.5943 0.8042
vn -0.4203 -0.4203 0.8042
vn -0.5490 -0.5490 0.6302
vn 0.0000 -0.7764 0.6302
vn 0.7764 0.0000 0.6302
vn 0.7764 0.0000 -0.6302
vn 0.5944 0.0000 0.8042
vn 0.4203 -0.4203 0.8042
vn 0.5490 -0.5490 0.6302
vn 0.5490 -0.5490 -0.6302
vn 0.0000 0.9878 -0.1557
vn -0.6984 0.6984 -0.1557
vn 0.0000 -0.7764 -0.6302
vn -0.5490 -0.5490 -0.6302
vn 0.4203 0.4203 0.8042
vn -0.7764 0.0000 -0.6302
vn 0.0000 0.5943 0.8042
vn -0.5490 0.5490 -0.6302
vn 0.6984 0.6984 -0.1557
vn 0.9878 0.0000 -0.1557
vn 0.6642 0.0000 -0.7476
vn 0.4696 0.4696 -0.7476
vn -0.9878 0.0000 -0.1557
vn -0.6985 -0.6984 -0.1557
vn 0.0000 -0.9878 -0.1557
vn 0.6984 -0.6984 -0.1557
vn 0.4696 -0.4696 -0.7476
vn 0.0000 -0.6642 -0.7476
vn -0.4696 -0.4696 -0.7476
vn -0.6642 0.0000 -0.7476
vn -0.4696 0.4696 -0.7476
vn 0.0000 0.6642 -0.7476
vn 0.5955 0.6494 -0.4728
vn -0.5955 0.6494 -0.4728
vn 0.5627 -0.4866 -0.6683
vn -0.5627 -0.4866 -0.6683
vn 0.5834 0.7946 -0.1681
vn 0.8244 0.5048 -0.2561
vn -0.8244 0.5048 -0.2561
vn -0.5834 0.7946 -0.1681
vn -0.6184 -0.7016 0.3540
vn -0.5716 0.1682 0.8031
vn 0.8109 0.5347 0.2377
vn -0.8109 0.5347 0.2377
vn 0.6184 -0.7016 0.3540
vn 0.5716 0.1682 0.8031
vn -0.5811 0.8108 0.0700
vn -0.5736 0.0693 -0.8162
vn -0.6263 -0.7128 -0.3157
vn 0.6263 -0.7128 -0.3157
vn 0.5811 0.8108 0.0700
vn 0.5736 0.0693 -0.8162
usemtl Material
s 1
f 13//13 14//14 15//15 16//16
f 17//17 20//18 23//19 21//20
f 13//13 17//17 18//21 14//14
f 15//15 14//14 45//22 46//23
f 15//15 19//24 20//18 16//16
f 20//18 17//17 29//25 30//26
f 21//20 23//19 24//27 22//28
f 19//24 18//21 22//28 24//27
f 18//21 17//17 21//20 22//28
f 20//18 19//24 24//27 23//19
f 27//29 25//30 26//31 28//32
f 16//16 20//18 28//32 26//31
f 13//13 16//16 26//31 25//30
f 17//17 13//13 25//30 27//29
f 30//26 29//25 31//33 32//34
f 28//32 20//18 30//26 32//34
f 27//29 28//32 32//34 31//33
f 17//17 27//29 31//33 29//25
f 33//25 38//35 41//36 35//33
f 35//33 41//36 42//37 43//38 44//39 36//34
f 33//25 34//26 39//40 40//41 37//42 38//35
f 34//26 33//25 35//33 36//34
f 39//40 34//26 36//34 44//39
f 43//38 40//41 39//40 44//39
f 41//36 38//35 37//42 42//37
f 37//42 40//41 43//38 42//37
f 48//43 46//23 50//44 52//45
f 18//21 19//24 48//43 47//46
f 19//24 15//15 46//23 48//43
f 14//14 18//21 47//46 45//22
f 49//47 51//48 52//45 50//44
f 46//23 45//22 49//47 50//44
f 47//46 48//43 52//45 51//48
f 45//22 47//46 51//48 49//47
f 53//49 55//30 61//50 58//51
f 55//30 56//31 64//52 63//53 62//54 61//50
f 53//49 58//51 57//55 60//56 59//57 54//58
f 54//58 56//31 55//30 53//49
f 59//57 64//52 56//31 54//58
f 63//53 64//52 59//57 60//56
f 61//50 62//54 57//55 58//51
f 57//55 62//54 63//53 60//56
f 65//33 68//34 67//26 66//25
f 71//59 72//60 76//61 75//62
f 67//26 68//34 72//60 71//59
f 68//34 65//33 69//63 72//60
f 66//25 67//26 71//59 70//64
f 65//33 66//25 70//64 69//63
f 73//65 74//66 75//62 76//61
f 72//60 69//63 73//65 76//61
f 70//64 71//59 75//62 74//66
f 69//63 70//64 74//66 73//65
f 105//67 107//68 116//69 115//70
f 105//67 106//70 108//69 107//68
f 79//71 80//72 82//73 81//74
f 101//75 103//76 112//77 111//78
f 103//76 104//77 106//70 105//67
f 81//74 82//73 84//79 83//80
f 97//81 99//82 110//83 109//79
f 101//75 102//78 104//77 103//76
f 83//80 84//79 86//83 85//84
f 116//69 114//72 122//85 124//86
f 99//82 100//83 102//78 101//75
f 85//84 86//83 88//78 87//87
f 104//77 102//78 100//83 98//79 96//73 77//72 108//69 106//70
f 97//81 98//79 100//83 99//82
f 87//87 88//78 90//77 89//88
f 103//76 105//67 115//70 112//77
f 95//89 96//73 98//79 97//81
f 89//88 90//77 92//70 91//90
f 82//73 80//72 94//69 92//70 90//77 88//78 86//83 84//79
f 78//91 77//72 96//73 95//89
f 91//90 92//70 94//69 93//92
f 99//82 101//75 111//78 110//83
f 107//68 108//69 77//72 78//91
f 93//92 94//69 80//72 79//71
f 79//71 81//74 83//80 85//84 87//87 89//88 91//90 93//92
f 95//89 97//81 109//79 113//73
f 107//68 78//91 114//72 116//69
f 78//91 95//89 113//73 114//72
f 121//93 117//94 125//95 129//96
f 112//77 115//70 123//97 120//98
f 110//83 111//78 119//99 118//100
f 111//78 112//77 120//98 119//99
f 115//70 116//69 124//86 123//97
f 114//72 113//73 121//93 122//85
f 113//73 109//79 117//94 121//93
f 109//79 110//83 118//100 117//94
f 125//95 126//101 127//102 128//103 131//104 132//105 130//106 129//96
f 117//94 118//100 126//101 125//95
f 124//86 122//85 130//106 132//105
f 120//98 123//97 131//104 128//103
f 118//100 119//99 127//102 126//101
f 119//99 120//98 128//103 127//102
f 123//97 124//86 132//105 131//104
f 122//85 121//93 129//96 130//106
f 133//107 135//108 136//26 134//25
f 138//109 137//49 140//58 139//110
f 136//26 135//108 139//110 140//58
f 135//108 133//107 138//109 139//110
f 134//25 136//26 140//58 137//49
f 133//107 134//25 137//49 138//109
f 148//111 143//112 145//113 144//114
f 144//114 145//113 147//115 142//116
f 143//112 152//117 151//118 145//113
f 142//116 147//115 141//119 146//120
f 146//120 141//119 143//112 148//111
f 148//111 144//114 142//116 146//120
f 151//118 155//121 154//122 150//123
f 141//119 149//124 152//117 143//112
f 145//113 151//118 150//123 147//115
f 147//115 150//123 149//124 141//119
f 156//125 153//126 154//122 155//121
f 149//124 153//126 156//125 152//117
f 150//123 154//122 153//126 149//124
f 152//117 156//125 155//121 151//118
f 160//25 157//33 158//34 159//26
f 164//49 163//58 162//31 161//30
f 159//26 163//58 164//49 160//25
f 158//34 162//31 163//58 159//26
f 160//25 164//49 161//30 157//33
f 157//33 161//30 162//31 158//34
